<!-- <?xml version="1.0" encoding="utf-8"?> -->
<!-- Generator: Adobe Illustrator 16.0.4, SVG Export Plug-In . SVG Version: 6.00 Build 0)  -->
<!-- <!DOCTYPE svg PUBLIC "-//W3C//DTD SVG 1.1//EN" "http://www.w3.org/Graphics/SVG/1.1/DTD/svg11.dtd"> -->
<svg version="1.1" id="icon-facebook" xmlns="http://www.w3.org/2000/svg" xmlns:xlink="http://www.w3.org/1999/xlink" x="0px" y="0px"
	 width="225.394px" height="225.394px" viewBox="154 -62 225.394 225.394" enable-background="new 154 -62 225.394 225.394"
	 xml:space="preserve">
<g>
	<path d="M154,151.948c0-67.501,0-135.001,0-202.502c0.086-0.234,0.215-0.461,0.251-0.703c0.76-5.169,4.335-9.086,9.415-10.304
		c0.594-0.143,1.187-0.293,1.779-0.439c67.501,0,135.002,0,202.503,0c0.271,0.088,0.537,0.22,0.816,0.259
		c4.901,0.679,8.98,4.373,10.144,9.195c0.16,0.665,0.323,1.328,0.485,1.992c0,67.501,0,135.001,0,202.502
		c-0.085,0.235-0.213,0.465-0.249,0.707c-0.785,5.225-4.365,9.115-9.521,10.332c-0.56,0.132-1.117,0.271-1.675,0.406
		c-19.443,0-38.887,0-58.329,0c0.023-0.51,0.07-1.021,0.07-1.532c0.003-28.097,0.003-56.192,0.003-84.289c0-0.463,0-0.926,0-1.509
		c9.815,0,19.48,0,29.233,0c1.471-11.367,2.927-22.626,4.404-34.047c-11.301,0-22.427,0-33.638,0c0-0.54,0-0.938,0-1.336
		c0-6.492-0.034-12.985,0.02-19.477c0.018-2.119,0.166-4.249,0.43-6.352c0.676-5.359,3.737-8.862,9.021-10.073
		c2.371-0.543,4.847-0.799,7.282-0.853c5.535-0.122,11.076-0.039,16.614-0.039c0.429,0,0.857,0,1.41,0c0-0.525,0-0.918,0-1.311
		c0-9.316-0.016-18.633,0.022-27.949c0.004-1.05-0.192-1.52-1.361-1.515c-1.311,0.006-2.62-0.308-3.934-0.355
		c-7.143-0.259-14.286-0.503-21.43-0.704c-4.12-0.116-8.191,0.386-12.194,1.337c-11.725,2.785-20.723,9.175-26.243,20.068
		c-3.355,6.622-4.841,13.73-4.96,21.092c-0.142,8.691-0.04,17.386-0.043,26.079c-0.001,0.43,0,0.859,0,1.44
		c-9.892,0-19.656,0-29.429,0c0,11.398,0,22.643,0,34.041c9.828,0,19.593,0,29.429,0c0,0.627,0,1.1,0,1.572
		c0,28.061-0.001,56.12,0.003,84.18c0,0.511,0.046,1.022,0.07,1.532c-36.318,0-72.637,0-108.955,0
		c-0.235-0.084-0.465-0.211-0.707-0.247c-5.195-0.784-9.071-4.328-10.295-9.424C154.301,153.13,154.147,152.54,154,151.948z"/>
</g>
</svg>
