<!-- <?xml version="1.0" encoding="utf-8"?> -->
<!-- Generator: Adobe Illustrator 16.0.4, SVG Export Plug-In . SVG Version: 6.00 Build 0)  -->
<!-- <!DOCTYPE svg PUBLIC "-//W3C//DTD SVG 1.1//EN" "http://www.w3.org/Graphics/SVG/1.1/DTD/svg11.dtd"> -->
<svg version="1.1" id="Layer_1" xmlns="http://www.w3.org/2000/svg" xmlns:xlink="http://www.w3.org/1999/xlink" x="0px" y="0px"
	 width="750.462px" height="225.394px" viewBox="154 -62 750.462 225.394" enable-background="new 154 -62 750.462 225.394"
	 xml:space="preserve">
<g>
	<path d="M154,151.948c0-67.501,0-135.001,0-202.502c0.086-0.234,0.215-0.461,0.251-0.703c0.76-5.169,4.335-9.086,9.415-10.304
		c0.594-0.143,1.187-0.293,1.779-0.439c67.501,0,135.002,0,202.503,0c0.271,0.088,0.537,0.22,0.816,0.259
		c4.901,0.679,8.98,4.373,10.144,9.195c0.16,0.665,0.323,1.328,0.485,1.992c0,67.501,0,135.001,0,202.502
		c-0.085,0.235-0.213,0.465-0.249,0.707c-0.785,5.225-4.365,9.115-9.521,10.332c-0.56,0.132-1.117,0.271-1.675,0.406
		c-19.443,0-38.887,0-58.329,0c0.023-0.51,0.07-1.021,0.07-1.532c0.003-28.097,0.003-56.192,0.003-84.289c0-0.463,0-0.926,0-1.509
		c9.815,0,19.48,0,29.233,0c1.471-11.367,2.927-22.626,4.404-34.047c-11.301,0-22.427,0-33.638,0c0-0.54,0-0.938,0-1.336
		c0-6.492-0.034-12.985,0.02-19.477c0.018-2.119,0.166-4.249,0.43-6.352c0.676-5.359,3.737-8.862,9.021-10.073
		c2.371-0.543,4.847-0.799,7.282-0.853c5.535-0.122,11.076-0.039,16.614-0.039c0.429,0,0.857,0,1.41,0c0-0.525,0-0.918,0-1.311
		c0-9.316-0.016-18.633,0.022-27.949c0.004-1.05-0.192-1.52-1.361-1.515c-1.311,0.006-2.62-0.308-3.934-0.355
		c-7.143-0.259-14.286-0.503-21.43-0.704c-4.12-0.116-8.191,0.386-12.194,1.337c-11.725,2.785-20.723,9.175-26.243,20.068
		c-3.355,6.622-4.841,13.73-4.96,21.092c-0.142,8.691-0.04,17.386-0.043,26.079c-0.001,0.43,0,0.859,0,1.44
		c-9.892,0-19.656,0-29.429,0c0,11.398,0,22.643,0,34.041c9.828,0,19.593,0,29.429,0c0,0.627,0,1.1,0,1.572
		c0,28.061-0.001,56.12,0.003,84.18c0,0.511,0.046,1.022,0.07,1.532c-36.318,0-72.637,0-108.955,0
		c-0.235-0.084-0.465-0.211-0.707-0.247c-5.195-0.784-9.071-4.328-10.295-9.424C154.301,153.13,154.147,152.54,154,151.948z"/>
</g>
<g>
	<path d="M392,124.831c0-35.197,0-70.396,0-105.592c0.422,0.01,0.842,0.03,1.264,0.03c20.451,0.001,40.902,0.001,61.352,0.001
		c0.367,0,0.732,0,1.279,0c-0.396,0.486-0.641,0.783-0.883,1.081c-0.244,0.303-0.496,0.6-0.732,0.91
		c-4.684,6.153-6.754,13.281-7.725,20.81c-0.746,5.785-0.754,11.588-0.152,17.38c0.301,2.894,0.539,5.862,1.391,8.617
		c1.846,5.972,4.645,11.551,8.285,16.651c11.137,15.604,26.488,23.3,45.49,23.861c4.441,0.132,8.852-0.694,13.189-1.693
		c15.268-3.513,27.395-11.596,35.912-24.848c5.645-8.784,8.848-18.397,9.002-28.865c0.18-12.089-3.428-23.112-10.018-33.197
		c-0.125-0.194-0.213-0.413-0.361-0.708c0.467,0,0.789,0,1.113,0c20.775,0,41.553,0,62.326-0.001c0.324,0,0.646-0.02,0.971-0.03
		c0,34.482,0,68.966,0,103.448c-0.061,0.208-0.143,0.414-0.178,0.626c-0.471,2.909-0.766,5.859-1.432,8.723
		c-1.803,7.751-5.287,14.641-11.238,20.057c-7.223,6.573-15.797,10.064-25.559,10.079c-47.268,0.07-94.535,0.053-141.803-0.009
		c-3.646-0.005-7.334-0.341-10.928-0.955c-7.607-1.3-14.311-4.555-19.691-10.208c-5.617-5.903-8.625-13.093-10.088-21.003
		C392.473,128.285,392.26,126.554,392,124.831z"/>
	<path fill-rule="evenodd" clip-rule="evenodd" d="M613.703-16.607c0,2.597,0,5.195,0,7.792c-0.055,0.207-0.152,0.413-0.156,0.621
		c-0.072,4.055-0.15,8.11-0.195,12.165c-0.027,2.427-0.006,4.853-0.006,7.379c-0.641,0-0.99,0-1.342,0
		c-22.854,0-45.709,0.005-68.562-0.028c-0.576,0-1.26-0.283-1.711-0.655c-3.963-3.271-8.121-6.251-12.648-8.698
		c-10.402-5.621-21.453-8.043-33.229-6.445c-12.314,1.671-23.086,6.883-32.621,14.743c-0.873,0.72-1.666,1.087-2.844,1.049
		c-7.424-0.24-14.852-0.381-22.277-0.554c-9.307-0.217-18.613-0.432-27.92-0.648C404.127,9.975,398.062,9.833,392,9.693
		c0-11.494,0-22.988,0-34.483c0.055-0.276,0.121-0.55,0.16-0.829c0.408-2.884,0.609-5.816,1.26-8.645
		c1.402-6.097,4.283-11.388,9.285-15.341c2.254-1.782,4.746-3.114,7.811-3.862c0,15.485,0,30.844,0,46.351c3.057,0,5.885,0,8.789,0
		c0-0.261,0-0.516,0.002-0.771c0.043-8.21,0.098-16.42,0.127-24.631c0.025-7.66,0.023-15.321,0.037-22.981
		c0.002-0.812-0.008-1.625,0.047-2.433c0.018-0.237,0.188-0.609,0.367-0.667c1.873-0.598,3.762-1.146,5.752-1.738
		c0.207,17.798,0.41,35.455,0.615,53.239c2.887,0,5.623,0,8.51,0c0-0.948-0.006-1.883,0-2.818c0.031-6.102,0.061-12.203,0.1-18.304
		c0.027-4.543,0.074-9.085,0.1-13.628c0.037-6.716,0.062-13.433,0.094-20.15c2.014,0,4.025,0,6.039,0
		c-0.01,0.227-0.031,0.453-0.031,0.679c0.043,9.509,0.092,19.018,0.127,28.526c0.031,8.244,0.045,16.487,0.066,24.73
		c0.002,0.41,0,0.819,0,1.301c2.984-0.141,5.812-0.274,8.604-0.406c0-18.307,0-36.43,0-54.543c1.146-0.1,2.23-0.194,3.312-0.288
		c30.977,0,61.953,0,92.93,0c0.34,0.054,0.682,0.154,1.021,0.155c6.977,0.02,13.951,0.025,20.926,0.042
		c2.207,0.005,4.439-0.185,6.613,0.087c10.223,1.28,19.285,5.139,26.387,12.791c7.682,8.277,11.883,18.113,12.461,29.441
		C613.561-18.524,613.639-17.566,613.703-16.607z M574.58-43.492c-3.246,0-6.492-0.001-9.736,0
		c-5.471,0.002-9.779,4.289-9.781,9.735c-0.002,6.459,0,12.918,0,19.377c0,5.716,4.23,9.997,9.928,10.01
		c6.426,0.015,12.854,0.018,19.279-0.001c5.533-0.017,9.857-4.244,9.904-9.767c0.057-6.523,0.053-13.048,0.004-19.572
		c-0.043-5.595-4.354-9.782-9.957-9.783C581.006-43.493,577.793-43.492,574.58-43.492z"/>
	<path fill-rule="evenodd" clip-rule="evenodd" d="M502.869,7.646c24.172,0.002,43.533,19.548,43.525,43.939
		c-0.01,23.904-19.666,43.253-43.938,43.244c-23.885-0.01-43.273-19.712-43.246-43.949C459.238,27.087,478.871,7.644,502.869,7.646z
		 M502.777,84.21c18.035,0.038,32.596-14.468,33.008-32.189c0.426-18.392-14.289-33.416-32.314-33.766
		c-18.342-0.355-33.596,14.403-33.633,32.83C469.801,69.429,484.529,84.21,502.777,84.21z"/>
</g>
<g id="twitter">
	<path d="M876.256-6.027c0.136,2.423,0.177,4.865,0.177,7.315c0,74.744-56.886,160.93-160.926,160.93
		c-31.934,0-61.67-9.359-86.716-25.412c4.403,0.49,8.928,0.799,13.49,0.799c26.506,0,50.891-9.049,70.258-24.231
		c-24.779-0.436-45.65-16.812-52.857-39.276c3.458,0.66,7.009,1.024,10.619,1.024c5.176,0,10.175-0.701,14.912-1.992
		c-25.882-5.221-45.39-28.05-45.39-55.479c0-0.247,0-0.467,0-0.706c7.631,4.223,16.362,6.768,25.632,7.054
		c-15.178-10.145-25.146-27.471-25.146-47.088c0-10.359,2.784-20.066,7.655-28.419C675.841-17.29,717.534,5.22,764.55,7.574
		c-0.98-4.123-1.454-8.461-1.454-12.896c0-31.208,25.314-56.536,56.54-56.536c16.28,0,30.993,6.868,41.308,17.841
		c12.866-2.521,24.99-7.229,35.912-13.715c-4.228,13.197-13.209,24.282-24.864,31.282c11.432-1.351,22.32-4.39,32.471-8.911
		C896.898-23.956,887.323-14.001,876.256-6.027z"/>
</g>
</svg>
