<?xml version="1.0" encoding="utf-8"?>
<!-- Generator: Adobe Illustrator 16.0.4, SVG Export Plug-In . SVG Version: 6.00 Build 0)  -->
<!DOCTYPE svg PUBLIC "-//W3C//DTD SVG 1.1//EN" "http://www.w3.org/Graphics/SVG/1.1/DTD/svg11.dtd">
<svg version="1.1" id="Layer_1" xmlns="http://www.w3.org/2000/svg" xmlns:xlink="http://www.w3.org/1999/xlink" x="0px" y="0px"
	 width="281.207px" height="228.575px" viewBox="126 -89 281.207 228.575" enable-background="new 126 -89 281.207 228.575"
	 xml:space="preserve">
<g id="twitter">
	<path d="M378.435-32.048c0.139,2.472,0.181,4.963,0.181,7.462c0,76.246-58.028,164.162-164.158,164.162
		c-32.574,0-62.908-9.547-88.457-25.923c4.492,0.501,9.107,0.815,13.761,0.815c27.038,0,51.913-9.23,71.669-24.718
		c-25.276-0.444-46.566-17.149-53.919-40.065c3.527,0.673,7.149,1.045,10.833,1.045c5.279,0,10.379-0.716,15.211-2.032
		c-26.401-5.325-46.301-28.614-46.301-56.594c0-0.252,0-0.477,0-0.72c7.784,4.308,16.69,6.904,26.146,7.195
		c-15.482-10.349-25.651-28.022-25.651-48.034c0-10.567,2.84-20.469,7.809-28.989c28.438,34.906,70.968,57.868,118.928,60.27
		c-1-4.206-1.483-8.631-1.483-13.155c0-31.834,25.822-57.671,57.676-57.671c16.606,0,31.615,7.006,42.137,18.199
		c13.125-2.572,25.492-7.375,36.634-13.991c-4.312,13.461-13.475,24.77-25.364,31.91c11.661-1.377,22.769-4.478,33.123-9.089
		C399.491-50.337,389.725-40.183,378.435-32.048z"/>
</g>
</svg>
